<svg xmlns="http://www.w3.org/2000/svg" width="25.209" height="15.804" viewBox="0 0 25.209 15.804">
  <path id="Icon_awesome-behance" data-name="Icon awesome-behance" d="M10.154,12.383a3.321,3.321,0,0,0,2.118-3.239c0-3.09-2.3-3.843-4.959-3.843H0V20.812H7.519c2.819,0,5.466-1.352,5.466-4.5a3.737,3.737,0,0,0-2.832-3.926ZM3.409,7.949h3.2c1.23,0,2.337.346,2.337,1.773,0,1.317-.862,1.847-2.079,1.847H3.409ZM7.055,18.178H3.409V13.906H7.125c1.5,0,2.451.626,2.451,2.215,0,1.567-1.134,2.057-2.521,2.057ZM22.745,7.643H16.456V6.116h6.289Zm2.464,7.716c0-3.322-1.943-6.092-5.466-6.092A5.644,5.644,0,0,0,14,15.21c0,3.5,2.2,5.9,5.746,5.9A5.007,5.007,0,0,0,25,17.328H22.277a2.555,2.555,0,0,1-2.438,1.466,2.54,2.54,0,0,1-2.757-2.858h8.1C25.2,15.753,25.209,15.556,25.209,15.359Zm-8.123-1.366a2.411,2.411,0,0,1,2.56-2.4,2.3,2.3,0,0,1,2.46,2.4Z" transform="translate(0 -5.302)"/>
</svg>
