<svg xmlns="http://www.w3.org/2000/svg" width="18.355" height="14.907" viewBox="0 0 18.355 14.907">
  <path id="Icon_awesome-twitter" data-name="Icon awesome-twitter" d="M16.468,7.1c.012.163.012.326.012.489a10.63,10.63,0,0,1-10.7,10.7A10.63,10.63,0,0,1,0,16.6a7.782,7.782,0,0,0,.908.047,7.534,7.534,0,0,0,4.67-1.607A3.768,3.768,0,0,1,2.061,12.43a4.744,4.744,0,0,0,.71.058,3.979,3.979,0,0,0,.99-.128A3.762,3.762,0,0,1,.745,8.668V8.622a3.788,3.788,0,0,0,1.7.477A3.767,3.767,0,0,1,1.281,4.068,10.693,10.693,0,0,0,9.037,8a4.247,4.247,0,0,1-.093-.862,3.765,3.765,0,0,1,6.51-2.574,7.406,7.406,0,0,0,2.387-.908,3.752,3.752,0,0,1-1.654,2.073,7.541,7.541,0,0,0,2.166-.582A8.086,8.086,0,0,1,16.468,7.1Z" transform="translate(0 -3.381)"/>
</svg>
