<svg xmlns="http://www.w3.org/2000/svg" width="22.937" height="22.364" viewBox="0 0 22.937 22.364">
  <path id="Icon_awesome-github" data-name="Icon awesome-github" d="M7.672,18.57c0,.092-.106.166-.24.166-.153.014-.259-.06-.259-.166s.106-.166.24-.166S7.672,18.464,7.672,18.57Zm-1.438-.208c-.032.092.06.2.2.227a.217.217,0,0,0,.287-.092c.028-.092-.06-.2-.2-.24A.237.237,0,0,0,6.234,18.362Zm2.044-.079c-.134.032-.227.12-.213.227s.134.153.273.12.227-.12.213-.213S8.412,18.27,8.278,18.283ZM11.321.563A11.089,11.089,0,0,0,0,11.846,11.594,11.594,0,0,0,7.838,22.908c.592.106.8-.259.8-.56s-.014-1.868-.014-2.839c0,0-3.237.694-3.917-1.378,0,0-.527-1.346-1.286-1.693,0,0-1.059-.726.074-.712a2.441,2.441,0,0,1,1.785,1.193,2.445,2.445,0,0,0,3.371.967,2.57,2.57,0,0,1,.74-1.558c-2.585-.287-5.193-.661-5.193-5.11A3.5,3.5,0,0,1,5.29,8.493a4.369,4.369,0,0,1,.12-3.14C6.377,5.053,8.6,6.6,8.6,6.6a10.925,10.925,0,0,1,5.808,0S16.634,5.048,17.6,5.353a4.367,4.367,0,0,1,.12,3.14,3.6,3.6,0,0,1,1.193,2.724c0,4.463-2.724,4.819-5.309,5.11a2.735,2.735,0,0,1,.786,2.146c0,1.558-.014,3.487-.014,3.866,0,.3.213.666.8.56a11.487,11.487,0,0,0,7.76-11.052A11.339,11.339,0,0,0,11.321.563ZM4.495,16.512c-.06.046-.046.153.032.24s.18.106.24.046.046-.153-.032-.24S4.555,16.452,4.495,16.512ZM4,16.138c-.032.06.014.134.106.18a.138.138,0,0,0,.2-.032c.032-.06-.014-.134-.106-.18C4.1,16.078,4.028,16.091,4,16.138Zm1.5,1.646c-.074.06-.046.2.06.287.106.106.24.12.3.046s.032-.2-.06-.287C5.693,17.724,5.554,17.71,5.494,17.784Zm-.527-.68c-.074.046-.074.166,0,.273s.2.153.259.106a.211.211,0,0,0,0-.287C5.161,17.09,5.041,17.044,4.967,17.1Z" transform="translate(0 -0.563)"/>
</svg>
