<svg xmlns="http://www.w3.org/2000/svg" width="22.517" height="22.516" viewBox="0 0 22.517 22.516">
  <path id="Icon_awesome-linkedin-in" data-name="Icon awesome-linkedin-in" d="M5.04,22.517H.372V7.484H5.04ZM2.7,5.433A2.716,2.716,0,1,1,5.407,2.7,2.726,2.726,0,0,1,2.7,5.433ZM22.512,22.517H17.853V15.2c0-1.744-.035-3.981-2.427-3.981-2.427,0-2.8,1.895-2.8,3.855v7.444H7.964V7.484h4.477V9.535h.065a4.905,4.905,0,0,1,4.417-2.428c4.724,0,5.593,3.111,5.593,7.152v8.258Z" transform="translate(0 -0.001)"/>
</svg>
