<?xml version="1.0" encoding="UTF-8"?>
<svg id="Layer_1" data-name="Layer 1" xmlns="http://www.w3.org/2000/svg" viewBox="0 0 66.66 66.66">
  <path d="m34.08,64.21c-4.69-.03-9.55-1.19-14.11-3.54-.53-.27-.94-.27-1.47-.06-4.85,1.96-9.7,3.91-14.58,5.8-.63.24-1.44.32-2.09.16-1.55-.39-2.22-2.02-1.6-3.62,1.1-2.8,2.23-5.58,3.34-8.37.86-2.14,1.73-4.28,2.55-6.44.13-.36.12-.89-.05-1.23C-1.89,31.18,3.75,12.58,19.13,3.97c16.61-9.3,38.21-1.6,45.2,16.1,6.49,16.42-1,34.53-17.21,41.58-4.01,1.74-8.23,2.55-13.03,2.56Zm-26.61-4.98c.4-.14.65-.22.89-.32,3.23-1.29,6.46-2.57,9.68-3.9,1.1-.45,2.07-.39,3.1.21,5.4,3.11,11.19,4.21,17.37,3.34,15.04-2.12,25.42-16.97,22.26-31.88C56.51,6.53,32.29-1.55,16.86,12.12c-7.11,6.3-9.95,14.37-8.76,23.82.44,3.47,1.62,6.7,3.39,9.7.62,1.05.66,2.06.16,3.18-.6,1.34-1.12,2.73-1.67,4.1-.82,2.06-1.64,4.11-2.52,6.31Z"/>
  <path d="m44.31,32.12c1.41,1.47,2.32,3.14,2.63,5.09.77,4.88-2.24,9.39-7.08,10.59-.91.22-1.87.33-2.81.34-3.4.04-6.8.02-10.19.01-1.92,0-2.99-1.08-2.99-3.01,0-8.69,0-17.38,0-26.07,0-1.99,1.05-3.02,3.05-3.02,3.45,0,6.91-.03,10.36,0,2.99.03,5.54,1.14,7.53,3.4,2.99,3.4,3.04,8.37.16,11.88-.19.24-.39.47-.66.78Zm-15.05-2.73c3.04,0,6.04.14,9.03-.04,2.46-.15,4.03-2.83,3.26-5.1-.55-1.62-2.31-2.82-4.24-2.84-2.53-.02-5.06,0-7.6,0-.16,0-.31.05-.45.07v7.91Zm0,13.38c2.9,0,5.76.07,8.61-.05.8-.03,1.66-.5,2.34-.98,1.39-.98,1.83-2.56,1.35-4.15-.46-1.52-1.9-2.76-3.5-2.79-2.89-.06-5.79,0-8.68,0-.04,0-.08.07-.12.09v7.87Z"/>
</svg>